<svg id="레이어_1" data-name="레이어 1" xmlns="http://www.w3.org/2000/svg" viewBox="0 0 600 400"><defs><style>.cls-1{fill:#697f6e;}.cls-2{fill:#779e7e;}.cls-3{fill:#ddeede;}</style></defs><path class="cls-1" d="M367.65,328.07c39.94,13.08,110.44-11.91,152-82.41s40.85-147.9-1.54-172.88-96.09,22.64-152,82.41C256.13,272.81,320.89,312.76,367.65,328.07Z"/><path class="cls-2" d="M425.3,324c37.77-6.46,67-75.52,51.53-147.73S413.31,53.08,369.41,62.46s-51.72,73.86-51.52,147.73C318.21,331.47,381.36,331.47,425.3,324Z"/><path class="cls-3" d="M422.59,327.6c-65.72,15.47-145-19.87-181.86-89.17S207.76,95,249.43,72.8s76.48,45,127.54,104.64C477.46,294.77,468.54,316.79,422.59,327.6Z"/><path class="cls-1" d="M234.33,183.64c-.11,1.7-.2,3.84-.25,6.41s-.06,5.19,0,7.82.07,5.06.21,7.28a25.82,25.82,0,0,0,.61,4.81,11.32,11.32,0,0,0,4.2,7,22.58,22.58,0,0,0,8,4.11,27.2,27.2,0,0,0,9.29,1.19,18.48,18.48,0,0,0,8.22-2.09c.06.71.08,1.28.08,1.72a4.53,4.53,0,0,1-.16,1.24,5.2,5.2,0,0,1-.37,1.27c-.19.47-.4,1-.62,1.69a5.89,5.89,0,0,1-2.71,3.53A10.28,10.28,0,0,1,257,231a12.79,12.79,0,0,1-3.7,0,26.36,26.36,0,0,1-4.69-1A23.08,23.08,0,0,1,244,228a9,9,0,0,1-3.21-2.84l-6.25,8.47a19,19,0,0,0,4.9,3.05,54.75,54.75,0,0,0,6.54,2.46,43.19,43.19,0,0,0,6.91,1.4,20,20,0,0,0,6.08-.08,17.06,17.06,0,0,0,4.11-1,21.07,21.07,0,0,0,4.61-2.34,19.05,19.05,0,0,0,4-4.07,12.93,12.93,0,0,0,2.26-5.88c.16-1.15.33-2.26.49-3.33s.3-2.18.41-3.34.21-2.39.29-3.74.13-2.86.13-4.56q0-1.89-.05-6.05c0-2.77,0-5.63,0-8.59s-.12-5.85-.2-8.51-.21-4.54-.37-5.64L264,183.8c.05,1.27.11,3.09.16,5.47s.06,4.84,0,7.36-.08,4.87-.24,7a13.51,13.51,0,0,1-.83,4.4,7.72,7.72,0,0,1-3.94,3.24,15.8,15.8,0,0,1-5.6,1.2,12.41,12.41,0,0,1-5.22-1.11,5,5,0,0,1-3-3.58,14.71,14.71,0,0,1-.62-3.95c-.14-2-.2-4.16-.2-6.58s-.05-4.86,0-7.36.2-4.65.37-6.45ZM226.52,185a36.13,36.13,0,0,0-7.32-1.24A34.6,34.6,0,0,0,212,184a14.72,14.72,0,0,0-5.51,1.73,5.64,5.64,0,0,0-2.51-2.1,17.42,17.42,0,0,0-4.15-1.36,29,29,0,0,0-5.39-.53,50.32,50.32,0,0,0-6,.28l1,10.12c.82,0,1.67,0,2.55.08a12.64,12.64,0,0,1,2.46.41,4.54,4.54,0,0,1,1.81,1,2.51,2.51,0,0,1,.74,1.93q0,2.72,0,6.87t0,8.84q0,4.62,0,9.34c0,3.15,0,6,0,8.59l11.1.58c.17-2.25.27-4.83.33-7.73s.11-5.84.16-8.8.09-5.8.09-8.52v-7a4,4,0,0,1,2.59-2.92,12.59,12.59,0,0,1,5.06-.94,20.87,20.87,0,0,1,5.92.9,17.17,17.17,0,0,1,5.26,2.55l5-9.62A18.42,18.42,0,0,0,226.52,185ZM183.87,202.1a24,24,0,0,0-2.34-9.17,19.74,19.74,0,0,0-6.75-7.73q-4.6-3.21-12.58-3-6.91.24-11.23,3.58a21.88,21.88,0,0,0-6.53,8,29.29,29.29,0,0,0-2.88,9.78A29.06,29.06,0,0,0,144.68,221q2.22,4.23,8.06,6.95a26.16,26.16,0,0,0,8.19,2.38,30.31,30.31,0,0,0,8.92-.16,27.66,27.66,0,0,0,8.43-2.67,20.2,20.2,0,0,0,6.7-5.39l-6.41-7.4a11.92,11.92,0,0,1-3.83,3.74,18.65,18.65,0,0,1-5.22,2.26,17.62,17.62,0,0,1-5.63.58,11.14,11.14,0,0,1-5-1.4,11.78,11.78,0,0,1-4.89-4.32,12.54,12.54,0,0,1-1.53-4.56,33.58,33.58,0,0,0,6.42.9,85.59,85.59,0,0,0,17-.7,36.51,36.51,0,0,0,7.41-1.77A24.91,24.91,0,0,0,183.87,202.1Zm-30.22-3a11.69,11.69,0,0,1,1.64-3.25,9.61,9.61,0,0,1,2.72-2.63A8.19,8.19,0,0,1,162,192a12,12,0,0,1,5.39.78,8.22,8.22,0,0,1,3.41,2.59,9.38,9.38,0,0,1,1.81,3.66,11.6,11.6,0,0,1,.33,3.83,26.56,26.56,0,0,1-3.41.28c-1.78.08-3.72.13-5.8.13s-4.21-.07-6.21-.21a19.5,19.5,0,0,1-4.48-.7A12.43,12.43,0,0,1,153.65,199.14Zm-24.26-16.57c-.83,2.58-1.81,5.5-3,8.76s-2.3,6.43-3.45,9.5-2.22,6-3.21,8.51-1.72,4.37-2.22,5.47a43.37,43.37,0,0,1-1.93-4.44q-1.44-3.62-3.25-8.31t-3.74-9.87q-1.94-5.1-3.25-9l-10.44,3c.6,2.08,1.54,4.87,2.83,8.35s2.73,7.17,4.32,11.06,3.25,7.85,5,11.72,3.38,7.22,5,10.07a4.23,4.23,0,0,0,2.06,2,9.07,9.07,0,0,0,3.21.9,8.31,8.31,0,0,0,3.37-.53,5.37,5.37,0,0,0,2.63-2.1,84.32,84.32,0,0,0,3.74-8q2.34-5.55,4.81-12T136.58,195q2.26-6.21,3.66-10ZM92.91,202.1a24,24,0,0,0-2.34-9.17,19.74,19.74,0,0,0-6.75-7.73q-4.6-3.21-12.58-3-6.92.24-11.23,3.58a21.81,21.81,0,0,0-6.54,8,29.51,29.51,0,0,0-2.87,9.78A29.06,29.06,0,0,0,53.72,221q2.22,4.23,8.06,6.95A26.18,26.18,0,0,0,70,230.35a30.37,30.37,0,0,0,8.93-.16,27.66,27.66,0,0,0,8.43-2.67,20.2,20.2,0,0,0,6.7-5.39l-6.41-7.4a11.92,11.92,0,0,1-3.83,3.74,18.65,18.65,0,0,1-5.22,2.26,17.65,17.65,0,0,1-5.63.58,11.1,11.1,0,0,1-5-1.4,11.88,11.88,0,0,1-4.9-4.32A12.52,12.52,0,0,1,61.53,211a33.58,33.58,0,0,0,6.42.9,85.59,85.59,0,0,0,17-.7,36.68,36.68,0,0,0,7.41-1.77A24.91,24.91,0,0,0,92.91,202.1Zm-30.22-3a11.69,11.69,0,0,1,1.64-3.25A9.71,9.71,0,0,1,67,193.26,8.26,8.26,0,0,1,71,192a12,12,0,0,1,5.39.78,8.22,8.22,0,0,1,3.41,2.59,9.38,9.38,0,0,1,1.81,3.66,11.6,11.6,0,0,1,.33,3.83,26.56,26.56,0,0,1-3.41.28c-1.79.08-3.72.13-5.8.13s-4.21-.07-6.21-.21a19.4,19.4,0,0,1-4.48-.7A12.43,12.43,0,0,1,62.69,199.14Z"/><path class="cls-1" d="M351.9,294.89a23.71,23.71,0,0,0-2.35-9.17,19.57,19.57,0,0,0-6.74-7.73q-4.6-3.21-12.59-3.05-6.9.26-11.22,3.58a21.81,21.81,0,0,0-6.54,8,29.42,29.42,0,0,0-2.88,9.79,29.12,29.12,0,0,0,3.13,17.47q2.22,4.24,8.06,6.95a26,26,0,0,0,8.18,2.39,30.3,30.3,0,0,0,8.92-.17,27.66,27.66,0,0,0,8.43-2.67,20.12,20.12,0,0,0,6.71-5.39l-6.42-7.4a11.89,11.89,0,0,1-3.82,3.74,18.9,18.9,0,0,1-5.23,2.27,17.9,17.9,0,0,1-5.63.57,11,11,0,0,1-5-1.4,11.7,11.7,0,0,1-4.89-4.31,12.43,12.43,0,0,1-1.52-4.57,34,34,0,0,0,6.41.91c2.64.16,5.43.19,8.39.08A82.53,82.53,0,0,0,344,304a36.41,36.41,0,0,0,7.4-1.77A25.2,25.2,0,0,0,351.9,294.89Zm-30.23-3a11.45,11.45,0,0,1,1.65-3.25,9.44,9.44,0,0,1,2.71-2.63,8.12,8.12,0,0,1,4-1.24,11.93,11.93,0,0,1,5.38.78,8.36,8.36,0,0,1,3.42,2.59,9.52,9.52,0,0,1,1.81,3.66,11.62,11.62,0,0,1,.33,3.83,28.09,28.09,0,0,1-3.42.29q-2.67.12-5.79.12t-6.21-.21a19.61,19.61,0,0,1-4.49-.69A13.3,13.3,0,0,1,321.67,291.93Zm-60.78,6.95c0,2.57,0,5.29.09,8.14s.23,5.77.36,8.59.26,5.25.38,7.28l11-1.48q-.09-2.06-.13-5.88t0-7.85v-12.5q-.49-4.94,2.68-7.37a11.72,11.72,0,0,1,13.77-.37,7.19,7.19,0,0,1,2.8,5.76c0,1,0,2.83.08,5.51s.11,5.54.16,8.56.11,6,.17,8.67.08,4.59.08,5.64l11.27.9q0-2.39,0-6.7c0-2.88,0-5.94,0-9.17s-.17-6.42-.33-9.54-.41-5.76-.74-7.9a12.88,12.88,0,0,0-2.51-5.71,18.48,18.48,0,0,0-4.73-4.32,24.46,24.46,0,0,0-6-2.67,24.79,24.79,0,0,0-6.3-1,27.06,27.06,0,0,0-8.51,1.11,22.1,22.1,0,0,0-6.87,3.41,17.79,17.79,0,0,0-4.6,5.51,15.51,15.51,0,0,0-1.81,7.16C261,294.22,260.89,296.3,260.89,298.88Zm-22.45-26.24h12V260.47h-12Zm.33,10.28c0,2.36.11,5.33.16,8.92s.11,7.31.17,11.15.12,7.43.2,10.94.18,6.33.29,8.47l11.43-.58c0-2.19,0-5.07-.08-8.63s-.11-7.29-.16-11.19-.14-7.66-.25-11.31-.19-6.62-.25-8.92Zm-24,39.73q0-1.81-.12-6.67c-.08-3.23-.15-6.69-.2-10.36s-.2-7.3-.25-10.73-.08-5.94-.08-7.53l2.55,0c1.2,0,2.55.07,4,.13s2.94,0,4.4.12l3.57.21,1-10-3.9-.2c-1.51-.08-3-.15-4.57-.21l-4.11-.12c-1.26,0-2.2,0-2.8,0,0-.33,0-1,0-1.89s0-2,0-3.29,0-2.63,0-4.12,0-3,0-4.44H203.24a27.43,27.43,0,0,0-.16,3.29v4c0,1.37,0,2.65.08,3.83s.08,2,.08,2.59c-.71,0-1.78,0-3.21,0s-2.9,0-4.44,0-3.12.12-4.6.21-2.58.18-3.29.28l2.05,9.46c.5,0,1.36,0,2.59,0s2.57,0,4,0,2.69,0,3.95,0,2.19,0,2.8,0c0,2.47,0,5.41,0,8.84s0,6.87,0,10.32.11,6.64.16,9.54.14,5,.25,6.33Zm-37.37-3.34a8,8,0,0,0,1.19,1.28,11.5,11.5,0,0,0,1.23,1.07q.66.49,1.32.9l8.39-4.6a27.32,27.32,0,0,1-4.45-5.76,21.23,21.23,0,0,1-2.38-6.41V277.58H171.33v6q0,3.75-.08,7.77c0,2.69,0,5.28,0,7.77s0,4.49,0,6a7.16,7.16,0,0,1-2.8,5.59,9.17,9.17,0,0,1-5.35,1.73,9.85,9.85,0,0,1-5.43-1.4,5.21,5.21,0,0,1-2.71-4.11,58.48,58.48,0,0,1-.53-6.34q-.14-3.53,0-7.32c0-2.57,0-5.18.12-7.81s.18-5.18.29-7.65l-11.35-.66q-.17,2.22-.29,5.93T143,291c0,2.8,0,5.62.08,8.47s.13,5.38.24,7.57a13.75,13.75,0,0,0,1.2,5.92,14.71,14.71,0,0,0,3.16,4.44,18.34,18.34,0,0,0,4.61,3,22.35,22.35,0,0,0,5.34,1.65,29.89,29.89,0,0,0,5.68.45,24.92,24.92,0,0,0,5.35-.62,19.07,19.07,0,0,0,4.6-1.64,10.57,10.57,0,0,0,3.29-2.55A5.55,5.55,0,0,0,177.38,319.31Zm-80.69-28.9a33.39,33.39,0,0,0,1.07,20.19,18.38,18.38,0,0,0,4.48,7,15.65,15.65,0,0,0,6.09,3.7,22,22,0,0,0,7.57,1.15,24.6,24.6,0,0,0,7.85-1.48,19.57,19.57,0,0,0,6.95-4.28,17.32,17.32,0,0,0,4.36-7,32.46,32.46,0,0,0,1.81-9.33,35,35,0,0,0-.82-9.54,20.94,20.94,0,0,0-3.46-7.9,16,16,0,0,0-6.12-4.93,23,23,0,0,0-17.24-1.28,17.68,17.68,0,0,0-7.72,4.81A20.34,20.34,0,0,0,96.69,290.41Zm19.7-4.77q3.45-.09,6.42,3.12a12.28,12.28,0,0,1,2.22,4.81,26,26,0,0,1,.74,6.21,25.54,25.54,0,0,1-.91,6.17,9.3,9.3,0,0,1-2.55,4.52,9.08,9.08,0,0,1-6.08,2.59,7.5,7.5,0,0,1-5.84-2.26,12,12,0,0,1-2.63-4.56,22.54,22.54,0,0,1-.58-13,10.1,10.1,0,0,1,3.21-5.26A9,9,0,0,1,116.39,285.64Zm-28-7.9a35.44,35.44,0,0,0-7.32-1.23,34,34,0,0,0-7.16.24,14.91,14.91,0,0,0-5.51,1.73,5.77,5.77,0,0,0-2.51-2.1A17.43,17.43,0,0,0,61.78,275a29.71,29.71,0,0,0-5.39-.54,48.42,48.42,0,0,0-6,.29l1,10.11q1.23,0,2.55.09a11.38,11.38,0,0,1,2.47.41,4.45,4.45,0,0,1,1.8,1,2.5,2.5,0,0,1,.74,1.93q0,2.72,0,6.87c0,2.77,0,5.71,0,8.84s0,6.18,0,9.33,0,6,0,8.6l11.1.57c.17-2.25.28-4.82.33-7.73s.11-5.84.17-8.8.08-5.8.08-8.51v-7a4,4,0,0,1,2.59-2.92,12.62,12.62,0,0,1,5.06-.95,20.5,20.5,0,0,1,5.92.91,16.62,16.62,0,0,1,5.26,2.55l5-9.63A18.63,18.63,0,0,0,88.43,277.74Z"/></svg>